<svg width="490" height="491" viewBox="0 0 490 491" fill="none" xmlns="http://www.w3.org/2000/svg">
<path d="M64.5045 8.43799C65.3684 2.98325 70.4911 -0.739244 75.9459 0.124512L480.684 64.229C486.139 65.0932 489.861 70.2157 488.997 75.6704L424.616 482.15C423.752 487.604 418.63 491.326 413.175 490.462L8.43707 426.358C2.98245 425.494 -0.739371 420.371 0.124573 414.917L64.5045 8.43799ZM319.009 412.867C317.874 420.184 318.197 426.629 319.98 432.201C321.769 437.732 324.741 442.205 328.895 445.619C333.095 448.999 338.197 451.156 344.203 452.087C351.083 453.155 357.123 452.421 362.322 449.888C367.56 447.361 371.612 443.694 374.476 438.884L375.43 439.032L372.904 455.318L393.842 458.567L408.059 366.936L386.464 363.585L378.226 416.679C377.504 421.332 375.928 425.058 373.499 427.858C371.115 430.624 368.311 432.552 365.087 433.64C361.864 434.728 358.661 435.025 355.479 434.532C350.309 433.73 346.399 431.371 343.748 427.458C341.097 423.544 340.222 418.684 341.123 412.877L349.657 357.875L328.061 354.524L319.009 412.867ZM269.307 344.186C262.904 343.193 256.909 343.24 251.324 344.329C245.744 345.377 240.832 347.507 236.586 350.717C232.348 353.888 229.001 358.134 226.546 363.455L246.266 369.447C247.827 366.472 250.318 364.067 253.738 362.236C257.198 360.411 261.573 359.908 266.862 360.729C271.873 361.506 275.52 363.335 277.802 366.214C280.084 369.093 280.876 372.78 280.179 377.274L280.124 377.632C279.803 379.7 278.79 381.111 277.085 381.865C275.425 382.585 272.888 382.924 269.473 382.883C266.065 382.802 261.633 382.623 256.177 382.347C251.649 382.133 247.213 382.24 242.871 382.666C238.574 383.058 234.618 384.012 231.003 385.528C227.387 387.044 224.363 389.344 221.929 392.428C219.496 395.512 217.878 399.64 217.076 404.81C216.144 410.815 216.692 416.073 218.721 420.583C220.79 425.098 223.968 428.769 228.254 431.592C232.587 434.382 237.656 436.228 243.462 437.128C248.235 437.869 252.493 437.857 256.236 437.094C260.025 436.297 263.262 434.988 265.948 433.165C268.68 431.308 270.9 429.208 272.607 426.867L273.323 426.977L271.37 439.565L292.129 442.786L301.645 381.459C302.589 375.375 302.262 370.131 300.665 365.729C299.107 361.333 296.7 357.682 293.445 354.774C290.196 351.826 286.464 349.496 282.25 347.783C278.036 346.07 273.721 344.871 269.307 344.186ZM120.341 382.043C119.206 389.361 119.529 395.805 121.312 401.376C123.101 406.908 126.073 411.38 130.227 414.794C134.427 418.175 139.53 420.331 145.535 421.263C152.415 422.331 158.455 421.598 163.654 419.065C168.893 416.538 172.944 412.87 175.808 408.06L176.762 408.208L174.236 424.494L195.174 427.743L209.391 336.112L187.796 332.761L179.558 385.855C178.836 390.508 177.261 394.234 174.831 397.034C172.447 399.8 169.643 401.728 166.419 402.816C163.196 403.904 159.994 404.201 156.812 403.708C151.642 402.905 147.731 400.547 145.08 396.633C142.429 392.72 141.554 387.859 142.455 382.053L150.989 327.05L129.393 323.7L120.341 382.043ZM275.694 406.574C275.169 409.954 273.81 412.941 271.616 415.533C269.461 418.131 266.658 420.059 263.205 421.315C259.758 422.531 255.867 422.803 251.532 422.13C247.038 421.433 243.496 419.845 240.908 417.367C238.319 414.888 237.334 411.66 237.951 407.683C238.383 404.899 239.47 402.746 241.213 401.224C242.963 399.663 245.187 398.582 247.886 397.983C250.586 397.384 253.58 397.116 256.87 397.178C258.332 397.202 260.059 397.225 262.051 397.249C264.043 397.272 266.061 397.26 268.105 397.21C270.149 397.161 272.004 397.021 273.669 396.791C275.373 396.566 276.607 396.229 277.37 395.777L275.694 406.574ZM20.98 400.716L96.9214 412.499L99.8004 393.946L45.9908 385.597L62.0689 281.975L39.9361 278.542L20.98 400.716ZM379.464 80.2104C374.015 79.3156 368.871 83.0078 367.976 88.4575L356.973 155.452C356.078 160.901 359.771 166.046 365.22 166.941L431.861 177.885C437.311 178.78 442.454 175.088 443.349 169.638L454.352 102.643C455.247 97.1935 451.555 92.0499 446.105 91.1548L379.464 80.2104Z" fill="white"/>
</svg>
